<?xml version="1.0" encoding="utf-8"?>
<svg xmlns="http://www.w3.org/2000/svg" xmlns:xlink="http://www.w3.org/1999/xlink" style="margin: auto; background: rgb(255, 255, 255); display: block; shape-rendering: auto;" width="200px" height="200px" viewBox="0 0 100 100" preserveAspectRatio="xMidYMid">
<g transform="rotate(0 50 50)">
  <rect x="49.5" y="23.5" rx="0.5" ry="1.43" width="1" height="13" fill="#44b436">
    <animate attributeName="opacity" values="1;0" keyTimes="0;1" dur="1.5384615384615383s" begin="-1.5088757396449701s" repeatCount="indefinite"></animate>
  </rect>
</g><g transform="rotate(6.923076923076923 50 50)">
  <rect x="49.5" y="23.5" rx="0.5" ry="1.43" width="1" height="13" fill="#44b436">
    <animate attributeName="opacity" values="1;0" keyTimes="0;1" dur="1.5384615384615383s" begin="-1.4792899408284022s" repeatCount="indefinite"></animate>
  </rect>
</g><g transform="rotate(13.846153846153847 50 50)">
  <rect x="49.5" y="23.5" rx="0.5" ry="1.43" width="1" height="13" fill="#44b436">
    <animate attributeName="opacity" values="1;0" keyTimes="0;1" dur="1.5384615384615383s" begin="-1.4497041420118342s" repeatCount="indefinite"></animate>
  </rect>
</g><g transform="rotate(20.76923076923077 50 50)">
  <rect x="49.5" y="23.5" rx="0.5" ry="1.43" width="1" height="13" fill="#44b436">
    <animate attributeName="opacity" values="1;0" keyTimes="0;1" dur="1.5384615384615383s" begin="-1.4201183431952662s" repeatCount="indefinite"></animate>
  </rect>
</g><g transform="rotate(27.692307692307693 50 50)">
  <rect x="49.5" y="23.5" rx="0.5" ry="1.43" width="1" height="13" fill="#44b436">
    <animate attributeName="opacity" values="1;0" keyTimes="0;1" dur="1.5384615384615383s" begin="-1.390532544378698s" repeatCount="indefinite"></animate>
  </rect>
</g><g transform="rotate(34.61538461538461 50 50)">
  <rect x="49.5" y="23.5" rx="0.5" ry="1.43" width="1" height="13" fill="#44b436">
    <animate attributeName="opacity" values="1;0" keyTimes="0;1" dur="1.5384615384615383s" begin="-1.36094674556213s" repeatCount="indefinite"></animate>
  </rect>
</g><g transform="rotate(41.53846153846154 50 50)">
  <rect x="49.5" y="23.5" rx="0.5" ry="1.43" width="1" height="13" fill="#44b436">
    <animate attributeName="opacity" values="1;0" keyTimes="0;1" dur="1.5384615384615383s" begin="-1.331360946745562s" repeatCount="indefinite"></animate>
  </rect>
</g><g transform="rotate(48.46153846153846 50 50)">
  <rect x="49.5" y="23.5" rx="0.5" ry="1.43" width="1" height="13" fill="#44b436">
    <animate attributeName="opacity" values="1;0" keyTimes="0;1" dur="1.5384615384615383s" begin="-1.3017751479289938s" repeatCount="indefinite"></animate>
  </rect>
</g><g transform="rotate(55.38461538461539 50 50)">
  <rect x="49.5" y="23.5" rx="0.5" ry="1.43" width="1" height="13" fill="#44b436">
    <animate attributeName="opacity" values="1;0" keyTimes="0;1" dur="1.5384615384615383s" begin="-1.2721893491124259s" repeatCount="indefinite"></animate>
  </rect>
</g><g transform="rotate(62.30769230769231 50 50)">
  <rect x="49.5" y="23.5" rx="0.5" ry="1.43" width="1" height="13" fill="#44b436">
    <animate attributeName="opacity" values="1;0" keyTimes="0;1" dur="1.5384615384615383s" begin="-1.242603550295858s" repeatCount="indefinite"></animate>
  </rect>
</g><g transform="rotate(69.23076923076923 50 50)">
  <rect x="49.5" y="23.5" rx="0.5" ry="1.43" width="1" height="13" fill="#44b436">
    <animate attributeName="opacity" values="1;0" keyTimes="0;1" dur="1.5384615384615383s" begin="-1.2130177514792897s" repeatCount="indefinite"></animate>
  </rect>
</g><g transform="rotate(76.15384615384616 50 50)">
  <rect x="49.5" y="23.5" rx="0.5" ry="1.43" width="1" height="13" fill="#44b436">
    <animate attributeName="opacity" values="1;0" keyTimes="0;1" dur="1.5384615384615383s" begin="-1.1834319526627217s" repeatCount="indefinite"></animate>
  </rect>
</g><g transform="rotate(83.07692307692308 50 50)">
  <rect x="49.5" y="23.5" rx="0.5" ry="1.43" width="1" height="13" fill="#44b436">
    <animate attributeName="opacity" values="1;0" keyTimes="0;1" dur="1.5384615384615383s" begin="-1.1538461538461537s" repeatCount="indefinite"></animate>
  </rect>
</g><g transform="rotate(90 50 50)">
  <rect x="49.5" y="23.5" rx="0.5" ry="1.43" width="1" height="13" fill="#44b436">
    <animate attributeName="opacity" values="1;0" keyTimes="0;1" dur="1.5384615384615383s" begin="-1.1242603550295858s" repeatCount="indefinite"></animate>
  </rect>
</g><g transform="rotate(96.92307692307692 50 50)">
  <rect x="49.5" y="23.5" rx="0.5" ry="1.43" width="1" height="13" fill="#44b436">
    <animate attributeName="opacity" values="1;0" keyTimes="0;1" dur="1.5384615384615383s" begin="-1.0946745562130176s" repeatCount="indefinite"></animate>
  </rect>
</g><g transform="rotate(103.84615384615384 50 50)">
  <rect x="49.5" y="23.5" rx="0.5" ry="1.43" width="1" height="13" fill="#44b436">
    <animate attributeName="opacity" values="1;0" keyTimes="0;1" dur="1.5384615384615383s" begin="-1.0650887573964496s" repeatCount="indefinite"></animate>
  </rect>
</g><g transform="rotate(110.76923076923077 50 50)">
  <rect x="49.5" y="23.5" rx="0.5" ry="1.43" width="1" height="13" fill="#44b436">
    <animate attributeName="opacity" values="1;0" keyTimes="0;1" dur="1.5384615384615383s" begin="-1.0355029585798816s" repeatCount="indefinite"></animate>
  </rect>
</g><g transform="rotate(117.6923076923077 50 50)">
  <rect x="49.5" y="23.5" rx="0.5" ry="1.43" width="1" height="13" fill="#44b436">
    <animate attributeName="opacity" values="1;0" keyTimes="0;1" dur="1.5384615384615383s" begin="-1.0059171597633134s" repeatCount="indefinite"></animate>
  </rect>
</g><g transform="rotate(124.61538461538461 50 50)">
  <rect x="49.5" y="23.5" rx="0.5" ry="1.43" width="1" height="13" fill="#44b436">
    <animate attributeName="opacity" values="1;0" keyTimes="0;1" dur="1.5384615384615383s" begin="-0.9763313609467454s" repeatCount="indefinite"></animate>
  </rect>
</g><g transform="rotate(131.53846153846155 50 50)">
  <rect x="49.5" y="23.5" rx="0.5" ry="1.43" width="1" height="13" fill="#44b436">
    <animate attributeName="opacity" values="1;0" keyTimes="0;1" dur="1.5384615384615383s" begin="-0.9467455621301774s" repeatCount="indefinite"></animate>
  </rect>
</g><g transform="rotate(138.46153846153845 50 50)">
  <rect x="49.5" y="23.5" rx="0.5" ry="1.43" width="1" height="13" fill="#44b436">
    <animate attributeName="opacity" values="1;0" keyTimes="0;1" dur="1.5384615384615383s" begin="-0.9171597633136094s" repeatCount="indefinite"></animate>
  </rect>
</g><g transform="rotate(145.3846153846154 50 50)">
  <rect x="49.5" y="23.5" rx="0.5" ry="1.43" width="1" height="13" fill="#44b436">
    <animate attributeName="opacity" values="1;0" keyTimes="0;1" dur="1.5384615384615383s" begin="-0.8875739644970413s" repeatCount="indefinite"></animate>
  </rect>
</g><g transform="rotate(152.30769230769232 50 50)">
  <rect x="49.5" y="23.5" rx="0.5" ry="1.43" width="1" height="13" fill="#44b436">
    <animate attributeName="opacity" values="1;0" keyTimes="0;1" dur="1.5384615384615383s" begin="-0.8579881656804733s" repeatCount="indefinite"></animate>
  </rect>
</g><g transform="rotate(159.23076923076923 50 50)">
  <rect x="49.5" y="23.5" rx="0.5" ry="1.43" width="1" height="13" fill="#44b436">
    <animate attributeName="opacity" values="1;0" keyTimes="0;1" dur="1.5384615384615383s" begin="-0.8284023668639052s" repeatCount="indefinite"></animate>
  </rect>
</g><g transform="rotate(166.15384615384616 50 50)">
  <rect x="49.5" y="23.5" rx="0.5" ry="1.43" width="1" height="13" fill="#44b436">
    <animate attributeName="opacity" values="1;0" keyTimes="0;1" dur="1.5384615384615383s" begin="-0.7988165680473371s" repeatCount="indefinite"></animate>
  </rect>
</g><g transform="rotate(173.07692307692307 50 50)">
  <rect x="49.5" y="23.5" rx="0.5" ry="1.43" width="1" height="13" fill="#44b436">
    <animate attributeName="opacity" values="1;0" keyTimes="0;1" dur="1.5384615384615383s" begin="-0.7692307692307692s" repeatCount="indefinite"></animate>
  </rect>
</g><g transform="rotate(180 50 50)">
  <rect x="49.5" y="23.5" rx="0.5" ry="1.43" width="1" height="13" fill="#44b436">
    <animate attributeName="opacity" values="1;0" keyTimes="0;1" dur="1.5384615384615383s" begin="-0.7396449704142011s" repeatCount="indefinite"></animate>
  </rect>
</g><g transform="rotate(186.92307692307693 50 50)">
  <rect x="49.5" y="23.5" rx="0.5" ry="1.43" width="1" height="13" fill="#44b436">
    <animate attributeName="opacity" values="1;0" keyTimes="0;1" dur="1.5384615384615383s" begin="-0.7100591715976331s" repeatCount="indefinite"></animate>
  </rect>
</g><g transform="rotate(193.84615384615384 50 50)">
  <rect x="49.5" y="23.5" rx="0.5" ry="1.43" width="1" height="13" fill="#44b436">
    <animate attributeName="opacity" values="1;0" keyTimes="0;1" dur="1.5384615384615383s" begin="-0.680473372781065s" repeatCount="indefinite"></animate>
  </rect>
</g><g transform="rotate(200.76923076923077 50 50)">
  <rect x="49.5" y="23.5" rx="0.5" ry="1.43" width="1" height="13" fill="#44b436">
    <animate attributeName="opacity" values="1;0" keyTimes="0;1" dur="1.5384615384615383s" begin="-0.6508875739644969s" repeatCount="indefinite"></animate>
  </rect>
</g><g transform="rotate(207.69230769230768 50 50)">
  <rect x="49.5" y="23.5" rx="0.5" ry="1.43" width="1" height="13" fill="#44b436">
    <animate attributeName="opacity" values="1;0" keyTimes="0;1" dur="1.5384615384615383s" begin="-0.621301775147929s" repeatCount="indefinite"></animate>
  </rect>
</g><g transform="rotate(214.6153846153846 50 50)">
  <rect x="49.5" y="23.5" rx="0.5" ry="1.43" width="1" height="13" fill="#44b436">
    <animate attributeName="opacity" values="1;0" keyTimes="0;1" dur="1.5384615384615383s" begin="-0.5917159763313609s" repeatCount="indefinite"></animate>
  </rect>
</g><g transform="rotate(221.53846153846155 50 50)">
  <rect x="49.5" y="23.5" rx="0.5" ry="1.43" width="1" height="13" fill="#44b436">
    <animate attributeName="opacity" values="1;0" keyTimes="0;1" dur="1.5384615384615383s" begin="-0.5621301775147929s" repeatCount="indefinite"></animate>
  </rect>
</g><g transform="rotate(228.46153846153845 50 50)">
  <rect x="49.5" y="23.5" rx="0.5" ry="1.43" width="1" height="13" fill="#44b436">
    <animate attributeName="opacity" values="1;0" keyTimes="0;1" dur="1.5384615384615383s" begin="-0.5325443786982248s" repeatCount="indefinite"></animate>
  </rect>
</g><g transform="rotate(235.3846153846154 50 50)">
  <rect x="49.5" y="23.5" rx="0.5" ry="1.43" width="1" height="13" fill="#44b436">
    <animate attributeName="opacity" values="1;0" keyTimes="0;1" dur="1.5384615384615383s" begin="-0.5029585798816567s" repeatCount="indefinite"></animate>
  </rect>
</g><g transform="rotate(242.30769230769232 50 50)">
  <rect x="49.5" y="23.5" rx="0.5" ry="1.43" width="1" height="13" fill="#44b436">
    <animate attributeName="opacity" values="1;0" keyTimes="0;1" dur="1.5384615384615383s" begin="-0.4733727810650887s" repeatCount="indefinite"></animate>
  </rect>
</g><g transform="rotate(249.23076923076923 50 50)">
  <rect x="49.5" y="23.5" rx="0.5" ry="1.43" width="1" height="13" fill="#44b436">
    <animate attributeName="opacity" values="1;0" keyTimes="0;1" dur="1.5384615384615383s" begin="-0.44378698224852065s" repeatCount="indefinite"></animate>
  </rect>
</g><g transform="rotate(256.15384615384613 50 50)">
  <rect x="49.5" y="23.5" rx="0.5" ry="1.43" width="1" height="13" fill="#44b436">
    <animate attributeName="opacity" values="1;0" keyTimes="0;1" dur="1.5384615384615383s" begin="-0.4142011834319526s" repeatCount="indefinite"></animate>
  </rect>
</g><g transform="rotate(263.0769230769231 50 50)">
  <rect x="49.5" y="23.5" rx="0.5" ry="1.43" width="1" height="13" fill="#44b436">
    <animate attributeName="opacity" values="1;0" keyTimes="0;1" dur="1.5384615384615383s" begin="-0.3846153846153846s" repeatCount="indefinite"></animate>
  </rect>
</g><g transform="rotate(270 50 50)">
  <rect x="49.5" y="23.5" rx="0.5" ry="1.43" width="1" height="13" fill="#44b436">
    <animate attributeName="opacity" values="1;0" keyTimes="0;1" dur="1.5384615384615383s" begin="-0.35502958579881655s" repeatCount="indefinite"></animate>
  </rect>
</g><g transform="rotate(276.9230769230769 50 50)">
  <rect x="49.5" y="23.5" rx="0.5" ry="1.43" width="1" height="13" fill="#44b436">
    <animate attributeName="opacity" values="1;0" keyTimes="0;1" dur="1.5384615384615383s" begin="-0.32544378698224846s" repeatCount="indefinite"></animate>
  </rect>
</g><g transform="rotate(283.84615384615387 50 50)">
  <rect x="49.5" y="23.5" rx="0.5" ry="1.43" width="1" height="13" fill="#44b436">
    <animate attributeName="opacity" values="1;0" keyTimes="0;1" dur="1.5384615384615383s" begin="-0.29585798816568043s" repeatCount="indefinite"></animate>
  </rect>
</g><g transform="rotate(290.7692307692308 50 50)">
  <rect x="49.5" y="23.5" rx="0.5" ry="1.43" width="1" height="13" fill="#44b436">
    <animate attributeName="opacity" values="1;0" keyTimes="0;1" dur="1.5384615384615383s" begin="-0.2662721893491124s" repeatCount="indefinite"></animate>
  </rect>
</g><g transform="rotate(297.6923076923077 50 50)">
  <rect x="49.5" y="23.5" rx="0.5" ry="1.43" width="1" height="13" fill="#44b436">
    <animate attributeName="opacity" values="1;0" keyTimes="0;1" dur="1.5384615384615383s" begin="-0.23668639053254434s" repeatCount="indefinite"></animate>
  </rect>
</g><g transform="rotate(304.61538461538464 50 50)">
  <rect x="49.5" y="23.5" rx="0.5" ry="1.43" width="1" height="13" fill="#44b436">
    <animate attributeName="opacity" values="1;0" keyTimes="0;1" dur="1.5384615384615383s" begin="-0.2071005917159763s" repeatCount="indefinite"></animate>
  </rect>
</g><g transform="rotate(311.53846153846155 50 50)">
  <rect x="49.5" y="23.5" rx="0.5" ry="1.43" width="1" height="13" fill="#44b436">
    <animate attributeName="opacity" values="1;0" keyTimes="0;1" dur="1.5384615384615383s" begin="-0.17751479289940827s" repeatCount="indefinite"></animate>
  </rect>
</g><g transform="rotate(318.46153846153845 50 50)">
  <rect x="49.5" y="23.5" rx="0.5" ry="1.43" width="1" height="13" fill="#44b436">
    <animate attributeName="opacity" values="1;0" keyTimes="0;1" dur="1.5384615384615383s" begin="-0.14792899408284022s" repeatCount="indefinite"></animate>
  </rect>
</g><g transform="rotate(325.38461538461536 50 50)">
  <rect x="49.5" y="23.5" rx="0.5" ry="1.43" width="1" height="13" fill="#44b436">
    <animate attributeName="opacity" values="1;0" keyTimes="0;1" dur="1.5384615384615383s" begin="-0.11834319526627217s" repeatCount="indefinite"></animate>
  </rect>
</g><g transform="rotate(332.3076923076923 50 50)">
  <rect x="49.5" y="23.5" rx="0.5" ry="1.43" width="1" height="13" fill="#44b436">
    <animate attributeName="opacity" values="1;0" keyTimes="0;1" dur="1.5384615384615383s" begin="-0.08875739644970414s" repeatCount="indefinite"></animate>
  </rect>
</g><g transform="rotate(339.2307692307692 50 50)">
  <rect x="49.5" y="23.5" rx="0.5" ry="1.43" width="1" height="13" fill="#44b436">
    <animate attributeName="opacity" values="1;0" keyTimes="0;1" dur="1.5384615384615383s" begin="-0.059171597633136085s" repeatCount="indefinite"></animate>
  </rect>
</g><g transform="rotate(346.15384615384613 50 50)">
  <rect x="49.5" y="23.5" rx="0.5" ry="1.43" width="1" height="13" fill="#44b436">
    <animate attributeName="opacity" values="1;0" keyTimes="0;1" dur="1.5384615384615383s" begin="-0.029585798816568042s" repeatCount="indefinite"></animate>
  </rect>
</g><g transform="rotate(353.0769230769231 50 50)">
  <rect x="49.5" y="23.5" rx="0.5" ry="1.43" width="1" height="13" fill="#44b436">
    <animate attributeName="opacity" values="1;0" keyTimes="0;1" dur="1.5384615384615383s" begin="0s" repeatCount="indefinite"></animate>
  </rect>
</g>
<!-- [ldio] generated by https://loading.io/ --></svg>